<?xml version="1.0" encoding="UTF-8" standalone="no"?>
<svg
   version="1.1"
   id="svg1"
   width="860"
   height="150"
   viewBox="250 610 860 150"
   xmlns="http://www.w3.org/2000/svg">
  <g id="layer-MC0">
    <path
       id="path1"
       d="m 0,0 c -10.525,0 -19.062,1.422 -25.611,4.268 -6.551,2.844 -11.464,6.79 -14.738,11.839 -3.277,5.046 -5.182,10.737 -5.718,17.073 h 12.564 c 0.322,-5.153 2.038,-9.316 5.154,-12.483 3.113,-3.168 7.221,-5.504 12.322,-7.006 5.099,-1.505 10.711,-2.255 16.832,-2.255 9.02,0 16.16,1.583 21.423,4.752 5.26,3.166 7.893,7.864 7.893,14.093 0,3.758 -1.317,6.791 -3.947,9.101 -2.632,2.308 -6.12,4.213 -10.469,5.719 -4.349,1.502 -9.101,2.871 -14.256,4.107 -5.154,1.233 -10.336,2.549 -15.543,3.946 -5.21,1.394 -9.986,3.166 -14.336,5.315 -4.349,2.147 -7.839,4.913 -10.469,8.295 -2.633,3.383 -3.947,7.704 -3.947,12.967 0,8.698 3.355,15.785 10.067,21.262 6.71,5.476 16.724,8.214 30.041,8.214 9.448,0 17.235,-1.424 23.355,-4.268 6.121,-2.846 10.712,-6.579 13.772,-11.195 3.061,-4.618 4.752,-9.611 5.074,-14.979 H 27.06 c -0.644,5.368 -3.33,9.906 -8.053,13.61 -4.727,3.705 -11.975,5.557 -21.745,5.557 -6.015,0 -10.901,-0.591 -14.658,-1.772 -3.76,-1.183 -6.632,-2.712 -8.618,-4.59 -1.988,-1.88 -3.329,-3.841 -4.026,-5.879 -0.7,-2.041 -1.047,-3.975 -1.047,-5.799 0,-3.543 1.314,-6.418 3.946,-8.617 2.63,-2.202 6.121,-4.027 10.47,-5.477 4.349,-1.45 9.153,-2.765 14.416,-3.946 5.26,-1.183 10.495,-2.497 15.704,-3.947 5.208,-1.449 9.987,-3.276 14.336,-5.476 4.349,-2.202 7.837,-5.021 10.47,-8.456 2.63,-3.438 3.946,-7.84 3.946,-13.209 0,-9.88 -3.76,-17.475 -11.275,-22.791 C 23.408,2.658 13.1,0 0,0"
       style="fill:#ffffff;fill-opacity:1;fill-rule:nonzero;stroke:none"
       transform="matrix(1.3333333,0,0,-1.3333333,315.4248,755.4716)" />
    <path
       id="path3"
       d="M 0,0 V 106.631 H 78.443 V 95.033 H 12.081 V 59.275 H 71.355 V 47.517 H 12.081 V 11.598 H 78.443 V 0 Z"
       style="fill:#ffffff;fill-opacity:1;fill-rule:nonzero;stroke:none"
       transform="matrix(1.3333333,0,0,-1.3333333,396.60387,753.754)" />
    <path
       id="path5"
       d="M 0,0 V 106.631 H 78.443 V 95.033 H 12.081 V 59.275 H 71.355 V 47.517 H 12.081 V 11.598 H 78.443 V 0 Z"
       style="fill:#ffffff;fill-opacity:1;fill-rule:nonzero;stroke:none"
       transform="matrix(1.3333333,0,0,-1.3333333,527.1776,753.754)" />
    <path
       id="path7"
       d="m 0,0 c -10.525,0 -19.062,1.422 -25.611,4.268 -6.551,2.844 -11.464,6.79 -14.738,11.839 -3.277,5.046 -5.182,10.737 -5.718,17.073 h 12.564 c 0.322,-5.153 2.038,-9.316 5.154,-12.483 3.113,-3.168 7.221,-5.504 12.322,-7.006 5.099,-1.505 10.712,-2.255 16.832,-2.255 9.02,0 16.16,1.583 21.423,4.752 5.26,3.166 7.893,7.864 7.893,14.093 0,3.758 -1.316,6.791 -3.947,9.101 -2.632,2.308 -6.12,4.213 -10.469,5.719 -4.349,1.502 -9.101,2.871 -14.255,4.107 -5.155,1.233 -10.337,2.549 -15.544,3.946 -5.21,1.394 -9.986,3.166 -14.336,5.315 -4.349,2.147 -7.839,4.913 -10.469,8.295 -2.633,3.383 -3.947,7.704 -3.947,12.967 0,8.698 3.355,15.785 10.067,21.262 6.71,5.476 16.724,8.214 30.041,8.214 9.448,0 17.235,-1.424 23.355,-4.268 6.121,-2.846 10.712,-6.579 13.772,-11.195 3.061,-4.618 4.752,-9.611 5.074,-14.979 H 27.06 c -0.644,5.368 -3.33,9.906 -8.053,13.61 -4.727,3.705 -11.975,5.557 -21.745,5.557 -6.015,0 -10.901,-0.591 -14.658,-1.772 -3.76,-1.183 -6.632,-2.712 -8.618,-4.59 -1.988,-1.88 -3.329,-3.841 -4.026,-5.879 -0.7,-2.041 -1.047,-3.975 -1.047,-5.799 0,-3.543 1.314,-6.418 3.946,-8.617 2.63,-2.202 6.121,-4.027 10.47,-5.477 4.349,-1.45 9.153,-2.765 14.416,-3.946 5.26,-1.183 10.495,-2.497 15.704,-3.947 5.208,-1.449 9.987,-3.276 14.336,-5.476 4.349,-2.202 7.837,-5.021 10.47,-8.456 2.63,-3.438 3.946,-7.84 3.946,-13.209 0,-9.88 -3.76,-17.475 -11.275,-22.791 C 23.408,2.658 13.1,0 0,0"
       style="fill:#ffffff;fill-opacity:1;fill-rule:nonzero;stroke:none"
       transform="matrix(1.3333333,0,0,-1.3333333,708.65053,755.4716)" />
    <path
       id="path9"
       d="m 0,0 -33.181,106.631 h 12.724 L 6.926,17.074 35.597,106.631 H 49.45 l 28.671,-89.557 27.382,89.557 h 12.725 L 85.046,0 H 71.355 L 42.523,89.557 13.691,0 Z"
       style="fill:#ffffff;fill-opacity:1;fill-rule:nonzero;stroke:none"
       transform="matrix(1.3333333,0,0,-1.3333333,953.6944,753.754)" />
    <path
       id="path11"
       d="M 0,0 21.745,52.026 43.49,0 Z m 34.101,53.315 h 23.08 V 64.591 H 29.315 14.174 -13.691 V 53.315 H 9.388 L -31.087,-42.04 h 13.369 l 13.047,30.926 H 48.161 L 61.208,-42.04 h 13.369 z"
       style="fill:#ffffff;fill-opacity:1;fill-rule:nonzero;stroke:none"
       transform="matrix(1.3333333,0,0,-1.3333333,813.88973,697.70013)" />
  </g>
</svg>

